<svg width="2550" height="477" viewBox="0 0 2550 477" fill="none" xmlns="http://www.w3.org/2000/svg">
<g clip-path="url(#clip0_49052_235)">
<path d="M785.84 372.165V88.6851H785.36L703.1 116.395V117.345L719.74 128.755C728.3 134.935 730.2 138.735 730.2 154.435V372.175C730.2 386.435 728.3 389.765 703.1 404.035V404.985H812.93V404.035C787.73 389.775 785.83 386.445 785.83 372.175H785.84V372.165Z" fill="black"/>
<path d="M1032.57 375.025C1027.34 380.255 1021.63 382.635 1014.98 382.635C1003.09 382.635 994.53 374.075 994.53 358.865V235.715C994.53 188.165 970.28 166.295 913.7 166.295C879.47 166.295 848.09 174.855 838.1 174.855C834.77 174.855 824.86 173.425 807.74 166.295H806.31L806.28 242.855H807.71C855.73 189.125 886.6 173.905 907.03 173.905C927.46 173.905 938.89 187.215 938.89 217.645V260.435C846.65 270.895 802.43 304.175 802.43 348.395C802.43 384.535 831.91 409.735 870.42 409.735C900.37 409.735 926.05 395.475 939.36 371.225C941.74 394.525 960.76 409.735 986.43 409.735C1009.73 409.735 1027.8 396.895 1033.5 375.505L1032.55 375.025H1032.56H1032.57ZM938.9 365.515V366.465C928.92 377.405 916.08 383.105 902.29 383.105C878.52 383.105 859.97 365.985 859.97 336.035C859.97 300.855 886.12 275.175 938.9 264.235V365.515Z" fill="black"/>
<path d="M1251.43 372.165V236.185C1251.43 190.535 1227.66 166.295 1190.57 166.295C1160.14 166.295 1129.71 183.415 1109.74 211.945V165.845H1109.26L1027 193.525V194.475L1043.64 205.885C1052.2 212.065 1054.1 215.865 1054.1 231.565V372.175C1054.1 386.435 1052.2 389.765 1027 404.035V404.985H1136.83V404.035C1111.63 389.775 1109.73 386.445 1109.73 372.175V216.695C1123.04 204.335 1139.68 197.675 1156.33 197.675C1180.1 197.675 1195.32 212.415 1195.32 245.225V372.175C1195.32 386.435 1193.42 389.765 1168.22 404.035V404.985H1278.05V404.035C1253.33 389.775 1251.42 386.445 1251.42 372.175H1251.43V372.165Z" fill="black"/>
<path d="M1477.58 371.655V372.285V67.2651H1477.1L1394.37 95.1051V96.0551L1411.01 107.475C1419.57 113.655 1421.47 117.455 1421.47 133.145V176.265C1410.53 169.615 1395.8 166.285 1380.58 166.285C1317.34 166.285 1265.52 219.055 1265.52 301.315C1265.52 371.685 1303.08 409.725 1348.72 409.725C1377.73 409.725 1405.3 394.035 1421.47 366.935V404.965H1504.2V403.505C1479.48 389.245 1477.57 385.915 1477.57 371.645H1477.58V371.655ZM1421.46 362.665C1411.48 372.645 1398.16 378.355 1384.37 378.355C1351.09 378.355 1323.51 345.545 1323.51 277.555C1323.51 209.565 1352.04 173.895 1382.47 173.895C1403.39 173.895 1421.46 190.545 1421.46 226.675V362.665Z" fill="black"/>
<path d="M1683.57 336.035C1668.35 355.055 1647.91 364.085 1624.14 364.085C1575.17 364.085 1537.13 325.575 1537.13 259.005V258.525H1684.05V251.865C1684.05 199.085 1650.29 166.285 1599.89 166.285C1538.08 166.285 1489.11 216.205 1489.11 291.335C1489.11 366.465 1535.71 409.725 1595.62 409.725C1640.79 409.725 1674.07 383.575 1684.53 336.505L1683.58 336.025H1683.57V336.035ZM1590.85 173.895C1614.15 173.415 1631.27 192.915 1631.27 236.655L1630.79 249.495H1537.6C1540.45 200.995 1564.7 173.895 1590.85 173.895Z" fill="black"/>
<path d="M1834.99 216.795H1836.42L1840.86 166.275C1810.91 166.275 1784.28 182.915 1762.88 231.885V165.815H1762.4L1680.14 193.455V194.405L1696.78 205.815C1705.34 211.995 1707.24 215.795 1707.24 231.495V372.165C1707.24 386.425 1705.34 389.755 1680.14 404.025V404.975H1789.97V404.025C1764.77 389.765 1762.87 386.435 1762.87 372.165V236.185C1779.51 218.115 1804.55 210.615 1834.98 216.815H1834.99V216.795Z" fill="black"/>
<path d="M179.45 67.3853V76.4153C227 94.9553 259.8 155.345 259.8 245.685C259.8 346.485 221.76 386.895 179.92 400.685V409.715C262.65 402.585 326.84 332.225 326.84 235.225C326.84 138.225 260.76 72.1453 179.45 67.3853Z" fill="black"/>
<path d="M66.57 231.425C66.57 131.105 104.61 90.2153 146.92 76.4253V67.3853C64.19 74.5253 0 144.885 0 241.885C0 338.885 66.09 404.915 147.4 409.675V400.645C99.85 382.105 66.57 321.775 66.57 231.435V231.425Z" fill="black"/>
<path d="M580.65 402.535C557.99 389.535 556.22 385.935 556.22 372.195V365.695C556.21 364.875 556.21 364.025 556.21 363.135V165.825H555.73L473.48 193.825V194.775L489.64 206.185C498.2 211.895 500.1 228.025 500.1 243.715V359.795C486.79 371.685 470.15 378.345 454.46 378.345C431.16 378.345 415.94 363.605 415.94 330.795V165.825H415.47L333.21 193.555V194.505L349.85 205.915C358.41 211.625 360.31 215.905 360.31 231.595V339.345C360.31 385.465 383.61 409.715 419.75 409.715C450.65 409.715 480.61 392.595 500.1 364.065V404.955H524.96V404.985H583.29V404.035C582.4 403.525 581.52 403.025 580.69 402.555L580.66 402.515H580.65V402.535Z" fill="black"/>
<path d="M713.19 365.985C705.11 375.015 694.65 379.775 683.71 379.775C664.69 379.775 650.43 366.935 650.43 340.785V206.645H706.06V197.615H650.43V134.405H649.95L594.33 153.065V193.235L566.27 202.685V207.435H594.32V349.345C594.32 387.855 618.09 409.725 653.75 409.725C683.23 409.725 705.1 394.505 714.13 366.455L713.18 365.975H713.19V365.985Z" fill="black"/>
<path d="M1842.97 368.755C1832.8 368.755 1824.72 376.575 1824.72 386.995C1824.72 397.415 1832.8 404.975 1842.97 404.975C1853.14 404.975 1861.46 397.155 1861.46 386.995C1861.46 376.835 1853.38 368.755 1842.97 368.755Z" fill="black"/>
</g>
<path d="M2462.46 0.5C2510.51 0.500003 2549.46 39.4512 2549.46 87.5V389.5C2549.46 437.549 2510.51 476.5 2462.46 476.5H2025.46C1977.41 476.5 1938.46 437.549 1938.46 389.5V87.5C1938.46 39.4512 1977.41 0.5 2025.46 0.5H2462.46ZM2338.58 409.511H2340.01C2358.06 401.911 2360.43 400.96 2364.23 400.96C2373.26 400.96 2391.78 408.086 2413.63 409.511V406.66C2391.78 393.36 2367.56 372.459 2336.21 327.333H2334.78L2338.58 409.511ZM2128.24 67.5C2045.59 74.6252 1981.46 144.927 1981.46 241.83C1981.46 339.683 2047.49 404.759 2128.71 409.51V406.66C2081.21 388.134 2047.96 321.632 2047.96 231.38C2047.96 131.152 2085.96 84.1261 2128.24 70.3506V67.5ZM2151.99 70.3506C2199.49 88.8763 2232.27 155.378 2232.27 245.63C2232.27 346.333 2194.27 392.885 2152.46 406.66V409.51C2235.12 402.385 2299.24 332.083 2299.24 235.18C2299.24 137.327 2233.22 72.2502 2151.99 67.5V70.3506ZM2404.61 166.778C2363.28 170.578 2333.36 198.604 2333.36 237.08C2333.36 265.581 2349.51 286.481 2384.66 299.307L2418.86 312.133C2452.11 324.483 2465.41 340.159 2465.41 362.484C2465.41 382.91 2454.01 398.11 2432.63 406.186V409.035C2477.29 404.285 2507.21 373.884 2507.21 332.558C2507.21 299.782 2489.16 278.406 2448.78 263.206L2414.58 250.381C2386.56 239.931 2375.16 226.155 2375.16 208.579C2375.16 191.479 2386.56 177.703 2404.61 169.628V166.778ZM2490.11 166.303C2472.06 173.428 2469.69 174.854 2465.41 174.854C2458.76 174.853 2443.56 168.203 2423.61 166.778V169.628C2441.66 180.553 2463.04 197.654 2491.54 235.18H2492.96L2491.54 166.303H2490.11Z" fill="url(#paint0_linear_49052_235)"/>
<path d="M2462.46 0.5C2510.51 0.500003 2549.46 39.4512 2549.46 87.5V389.5C2549.46 437.549 2510.51 476.5 2462.46 476.5H2025.46C1977.41 476.5 1938.46 437.549 1938.46 389.5V87.5C1938.46 39.4512 1977.41 0.5 2025.46 0.5H2462.46ZM2338.58 409.511H2340.01C2358.06 401.911 2360.43 400.96 2364.23 400.96C2373.26 400.96 2391.78 408.086 2413.63 409.511V406.66C2391.78 393.36 2367.56 372.459 2336.21 327.333H2334.78L2338.58 409.511ZM2128.24 67.5C2045.59 74.6252 1981.46 144.927 1981.46 241.83C1981.46 339.683 2047.49 404.759 2128.71 409.51V406.66C2081.21 388.134 2047.96 321.632 2047.96 231.38C2047.96 131.152 2085.96 84.1261 2128.24 70.3506V67.5ZM2151.99 70.3506C2199.49 88.8763 2232.27 155.378 2232.27 245.63C2232.27 346.333 2194.27 392.885 2152.46 406.66V409.51C2235.12 402.385 2299.24 332.083 2299.24 235.18C2299.24 137.327 2233.22 72.2502 2151.99 67.5V70.3506ZM2404.61 166.778C2363.28 170.578 2333.36 198.604 2333.36 237.08C2333.36 265.581 2349.51 286.481 2384.66 299.307L2418.86 312.133C2452.11 324.483 2465.41 340.159 2465.41 362.484C2465.41 382.91 2454.01 398.11 2432.63 406.186V409.035C2477.29 404.285 2507.21 373.884 2507.21 332.558C2507.21 299.782 2489.16 278.406 2448.78 263.206L2414.58 250.381C2386.56 239.931 2375.16 226.155 2375.16 208.579C2375.16 191.479 2386.56 177.703 2404.61 169.628V166.778ZM2490.11 166.303C2472.06 173.428 2469.69 174.854 2465.41 174.854C2458.76 174.853 2443.56 168.203 2423.61 166.778V169.628C2441.66 180.553 2463.04 197.654 2491.54 235.18H2492.96L2491.54 166.303H2490.11Z" fill="url(#paint1_linear_49052_235)" fill-opacity="0.2" style="mix-blend-mode:luminosity"/>
<path d="M1938.46 87.5C1938.46 39.4512 1977.41 0.5 2025.46 0.5H2462.46C2510.51 0.5 2549.46 39.4512 2549.46 87.5V389.5C2549.46 437.549 2510.51 476.5 2462.46 476.5H2025.46C1977.41 476.5 1938.46 437.549 1938.46 389.5V87.5Z" stroke="url(#paint2_linear_49052_235)" style="mix-blend-mode:multiply"/>
<path d="M1938.46 87.5C1938.46 39.4512 1977.41 0.5 2025.46 0.5H2462.46C2510.51 0.5 2549.46 39.4512 2549.46 87.5V389.5C2549.46 437.549 2510.51 476.5 2462.46 476.5H2025.46C1977.41 476.5 1938.46 437.549 1938.46 389.5V87.5Z" stroke="black" stroke-opacity="0.9"/>
<defs>
<linearGradient id="paint0_linear_49052_235" x1="2243.96" y1="0.5" x2="2243.96" y2="476.5" gradientUnits="userSpaceOnUse">
<stop stop-color="white"/>
<stop offset="0.605769" stop-color="#4E4E4E"/>
<stop offset="1" stop-color="#515151"/>
</linearGradient>
<linearGradient id="paint1_linear_49052_235" x1="2575.38" y1="50.0232" x2="2113.56" y2="328.695" gradientUnits="userSpaceOnUse">
<stop/>
<stop offset="1" stop-color="#666666"/>
</linearGradient>
<linearGradient id="paint2_linear_49052_235" x1="1956" y1="12.5" x2="2562.5" y2="491" gradientUnits="userSpaceOnUse">
<stop stop-color="#999999"/>
<stop offset="1" stop-color="white"/>
</linearGradient>
<clipPath id="clip0_49052_235">
<rect width="1861.46" height="342.47" fill="white" transform="translate(0 67.2651)"/>
</clipPath>
</defs>
</svg>
